<?xml version="1.0" encoding="UTF-8"?>
<svg version="1.1" xmlns="http://www.w3.org/2000/svg" width="88" height="85">
<path d="M0 0 C4.07282376 3.42487453 6.77069184 7.05111891 7.75 12.3125 C7.81624507 14.06136981 7.83552595 15.81252748 7.8125 17.5625 C7.80347656 18.45453125 7.79445312 19.3465625 7.78515625 20.265625 C7.77355469 20.94109375 7.76195312 21.6165625 7.75 22.3125 C8.471875 22.395 9.19375 22.4775 9.9375 22.5625 C13.33926868 23.46963831 15.20466084 24.91260879 17.75 27.3125 C17.75 27.9725 17.75 28.6325 17.75 29.3125 C18.41 29.3125 19.07 29.3125 19.75 29.3125 C22.56052189 34.10162929 22.38552679 38.90659931 21.75 44.3125 C19.56159724 48.77035747 16.8651064 51.57101152 12.75 54.3125 C9.33984375 54.7734375 9.33984375 54.7734375 5.6875 54.6875 C4.47964844 54.67460938 3.27179687 54.66171875 2.02734375 54.6484375 C-0.97952294 54.3402247 -2.71956255 53.89007946 -5.25 52.3125 C-5.25 51.6525 -5.25 50.9925 -5.25 50.3125 C-8.26031744 49.37826355 -9.11650268 49.26800089 -12.25 50.3125 C-12.25 50.9725 -12.25 51.6325 -12.25 52.3125 C-17.03725624 55.30453515 -22.40465349 55.37613264 -27.875 55.1875 C-33.22790578 53.79970961 -36.16838605 50.93492093 -39.25 46.3125 C-39.89781888 40.67044953 -40.03194247 35.23181333 -37.875 29.9375 C-35.35039123 27.41289123 -33.02184633 25.92012225 -30 24.0625 C-26.29804071 21.75844277 -26.29804071 21.75844277 -24.7421875 17.92578125 C-24.83114866 16.21720375 -24.9644873 14.51039476 -25.140625 12.80859375 C-25.32286421 8.64963463 -23.71431916 5.58566011 -21.25 2.3125 C-14.43545061 -3.22432138 -7.86881233 -4.08572948 0 0 Z M-14.625 7.1875 C-17.5321357 10.98913899 -17.33789351 13.56625043 -17.25 18.3125 C-18.24 18.8075 -18.24 18.8075 -19.25 19.3125 C-18.04601562 19.37308594 -16.84203125 19.43367188 -15.6015625 19.49609375 C-14.02602923 19.58049732 -12.45050904 19.66514541 -10.875 19.75 C-10.0809375 19.78931641 -9.286875 19.82863281 -8.46875 19.86914062 C-2.4765625 20.19921875 -2.4765625 20.19921875 -0.25 21.3125 C0.24195567 13.79954182 0.24195567 13.79954182 -3.25 7.3125 C-3.91 7.3125 -4.57 7.3125 -5.25 7.3125 C-5.25 6.6525 -5.25 5.9925 -5.25 5.3125 C-10.32168736 4.8356292 -10.32168736 4.8356292 -14.625 7.1875 Z M-2.25 21.3125 C-2.58 23.2925 -2.91 25.2725 -3.25 27.3125 C-2.59 26.9825 -1.93 26.6525 -1.25 26.3125 C-1.25 24.6625 -1.25 23.0125 -1.25 21.3125 C-1.58 21.3125 -1.91 21.3125 -2.25 21.3125 Z M5.75 25.3125 C6.75 27.3125 6.75 27.3125 6.75 27.3125 Z M-22.25 28.3125 C-19.15279155 29.19090996 -17.34354597 29.30685406 -14.25 28.3125 C-13.96125 29.240625 -13.6725 30.16875 -13.375 31.125 C-12.3625 34.41041667 -12.3625 34.41041667 -10.25 37.3125 C-9.59 37.3125 -8.93 37.3125 -8.25 37.3125 C-6.88766116 35.8623595 -6.88766116 35.8623595 -5.625 34 C-5.17898437 33.38511719 -4.73296875 32.77023438 -4.2734375 32.13671875 C-3.00535719 30.22505444 -3.00535719 30.22505444 -3.25 27.3125 C-10.11747109 26.20484337 -15.51718787 26.611727 -22.25 28.3125 Z M4.75 28.3125 C4.43546875 28.97636719 4.1209375 29.64023437 3.796875 30.32421875 C1.49698951 35.06946442 -0.69142868 39.35853186 -4.25 43.3125 C-0.88141058 46.00737154 1.50178481 47.615951 5.875 47.8125 C9.67352876 47.5853503 9.67352876 47.5853503 12.25 45.8125 C14.33670129 42.33466452 14.65487623 39.2026944 13.75 35.3125 C11.10334135 31.93065839 8.57122385 30.12513183 4.75 28.3125 Z M-30.25 33.3125 C-32.14718213 35.89956654 -32.26011003 37.06985917 -32.125 40.3125 C-31.08307574 43.88481176 -30.35357196 45.24345202 -27.25 47.3125 C-23.16018804 47.8918192 -23.16018804 47.8918192 -19.25 47.3125 C-17.6 45.9925 -15.95 44.6725 -14.25 43.3125 C-18.21 36.3825 -18.21 36.3825 -22.25 29.3125 C-26.22378549 29.3125 -27.37649795 30.66003657 -30.25 33.3125 Z " fill="#CCCDC2" transform="translate(55.25,13.6875)"/>
<path d="M0 0 C4 6.75 4 6.75 4 9 C4.66 9 5.32 9 6 9 C6.268125 8.401875 6.53625 7.80375 6.8125 7.1875 C7.98493467 5.02775192 9.19369282 3.64209744 11 2 C11.66 2.66 12.32 3.32 13 4 C12.67 4.66 12.34 5.32 12 6 C12.66 6 13.32 6 14 6 C14.33 5.34 14.66 4.68 15 4 C15.66 4 16.32 4 17 4 C17.33 3.01 17.66 2.02 18 1 C18.33 1.66 18.66 2.32 19 3 C17.56640625 5.8203125 17.56640625 5.8203125 15.5625 9.125 C14.57443359 10.76855469 14.57443359 10.76855469 13.56640625 12.4453125 C13.04949219 13.28835937 12.53257813 14.13140625 12 15 C12.99 15.99 13.98 16.98 15 18 C13.125 22.75 13.125 22.75 12 25 C11.01 24.67 10.02 24.34 9 24 C9 23.34 9 22.68 9 22 C8.46375 21.87625 7.9275 21.7525 7.375 21.625 C3.18871839 20.52334694 -0.37933618 19.41377588 -4 17 C-3.01 16.34 -2.02 15.68 -1 15 C-1.5053125 14.15695313 -2.010625 13.31390625 -2.53125 12.4453125 C-3.50578125 10.80175781 -3.50578125 10.80175781 -4.5 9.125 C-5.1496875 8.03445312 -5.799375 6.94390625 -6.46875 5.8203125 C-8 3 -8 3 -8 1 C-5.10765685 0.17361624 -3.11257569 0 0 0 Z " fill="#DFE0D6" transform="translate(41,42)"/>
<path d="M0 0 C1.26237731 2.52475462 1.09856404 4.31200466 1.0625 7.125 C1.05347656 8.03507812 1.04445313 8.94515625 1.03515625 9.8828125 C1.02355469 10.58148438 1.01195312 11.28015625 1 12 C2.11375 12.1546875 2.11375 12.1546875 3.25 12.3125 C6.30108241 13.0752706 7.85403077 13.69507009 10 16 C10.31900332 19.12623255 10.41441874 21.17116253 9 24 C8.34 24 7.68 24 7 24 C6.67 23.01 6.34 22.02 6 21 C4.12612784 20.19787372 4.12612784 20.19787372 1.9375 19.8125 C0.83728516 19.57466797 0.83728516 19.57466797 -0.28515625 19.33203125 C-1.13400391 19.16767578 -1.13400391 19.16767578 -2 19 C-2.66 19.99 -3.32 20.98 -4 22 C-4.66 22 -5.32 22 -6 22 C-6.33 22.99 -6.66 23.98 -7 25 C-7.99 24.67 -8.98 24.34 -10 24 C-10 21.10182912 -9.59691819 18.82853393 -9 16 C-8.7456979 14.67114352 -8.49466054 13.34165997 -8.24609375 12.01171875 C-8.11396484 11.30595703 -7.98183594 10.60019531 -7.84570312 9.87304688 C-7.71099609 9.15181641 -7.57628906 8.43058594 -7.4375 7.6875 C-7.29892578 6.94693359 -7.16035156 6.20636719 -7.01757812 5.44335938 C-6.67810945 3.62895786 -6.33901677 1.81448601 -6 0 C-3 -1 -3 -1 0 0 Z M-1 15 C0 17 0 17 0 17 Z " fill="#E2E0D2" transform="translate(62,24)"/>
<path d="M0 0 C0.33 2.97 0.66 5.94 1 9 C2.2065625 8.7215625 2.2065625 8.7215625 3.4375 8.4375 C4.7059375 8.2209375 4.7059375 8.2209375 6 8 C6.33 8.33 6.66 8.66 7 9 C10.56366263 9.03189979 14.11719371 8.93128353 17.6796875 8.83984375 C21 9 21 9 24 11 C24 11.66 24 12.32 24 13 C23.34 13 22.68 13 22 13 C22 13.66 22 14.32 22 15 C17.21274376 17.99203515 11.84534651 18.06363264 6.375 17.875 C2.00796117 16.74280475 -0.02304425 15.40223514 -3 12 C-3.95011193 8.9745039 -4.43115902 6.15395775 -4 3 C-1.56167401 0 -1.56167401 0 0 0 Z " fill="#C4C5BC" transform="translate(21,51)"/>
<path d="M0 0 C0.66 0.33 1.32 0.66 2 1 C2 3 2 5 2 7 C2.66 7.33 3.32 7.66 4 8 C3.38511719 8.23074219 2.77023438 8.46148437 2.13671875 8.69921875 C-1.52395126 10.17633121 -4.38928287 11.35335833 -7.125 14.25 C-8.37053733 18.16454589 -7.75026344 20.97585975 -7 25 C-7.99 25.33 -8.98 25.66 -10 26 C-10.66 23.36 -11.32 20.72 -12 18 C-14.41121859 19.95633975 -14.41121859 19.95633975 -14.125 23.625 C-14.08375 24.73875 -14.0425 25.8525 -14 27 C-14.66 26.67 -15.32 26.34 -16 26 C-16.61571903 14.47237158 -16.61571903 14.47237158 -14.5625 9.5625 C-10.37714711 5.37714711 -5.64538267 1.88179422 0 0 Z " fill="#DADACD" transform="translate(32,34)"/>
<path d="M0 0 C0.33 0.66 0.66 1.32 1 2 C1.66 2 2.32 2 3 2 C4.98170967 5.30546039 5.24423132 7.79821459 5.1875 11.625 C5.17783203 13.06746094 5.17783203 13.06746094 5.16796875 14.5390625 C5 17 5 17 4 19 C1.36 19 -1.28 19 -4 19 C-3.94199219 18.27554688 -3.88398437 17.55109375 -3.82421875 16.8046875 C-3.39691129 10.05096256 -3.39691129 10.05096256 -6.5 4.3125 C-7.325 3.549375 -8.15 2.78625 -9 2 C-7.02 2.66 -5.04 3.32 -3 4 C-3 4.99 -3 5.98 -3 7 C-2.67 6.34 -2.34 5.68 -2 5 C-1.34 5 -0.68 5 0 5 C0 3.35 0 1.7 0 0 Z " fill="#F6F5E6" transform="translate(72,41)"/>
<path d="M0 0 C1.47668858 0.0133035 2.95331108 0.03716415 4.4296875 0.0703125 C5.18378906 0.07933594 5.93789063 0.08835938 6.71484375 0.09765625 C8.57826004 0.1212438 10.44151343 0.15711531 12.3046875 0.1953125 C12.3046875 1.1853125 12.3046875 2.1753125 12.3046875 3.1953125 C12.6346875 4.1853125 12.9646875 5.1753125 13.3046875 6.1953125 C7.58428739 7.0273707 2.08228634 7.31567914 -3.6953125 7.1953125 C-4.3553125 5.5453125 -5.0153125 3.8953125 -5.6953125 2.1953125 C-3.6953125 0.1953125 -3.6953125 0.1953125 0 0 Z " fill="#E2E2D7" transform="translate(37.6953125,33.8046875)"/>
<path d="M0 0 C0.83819158 1.62249941 1.6704116 3.24808497 2.5 4.875 C2.9640625 5.77992187 3.428125 6.68484375 3.90625 7.6171875 C5 10 5 10 5 12 C1.71303767 12.79953138 0.28976808 13.09658936 -3 12 C-4.38671875 10.00390625 -4.38671875 10.00390625 -5.6875 7.5625 C-6.12449219 6.75941406 -6.56148437 5.95632812 -7.01171875 5.12890625 C-8 3 -8 3 -8 1 C-5.10765685 0.17361624 -3.11257569 0 0 0 Z " fill="#DDDCCA" transform="translate(41,42)"/>
<path d="M0 0 C2.31 0.33 4.62 0.66 7 1 C7 2.98 7 4.96 7 7 C8.71509766 7.07347656 8.71509766 7.07347656 10.46484375 7.1484375 C11.95575473 7.22345189 13.44663892 7.29900028 14.9375 7.375 C16.06961914 7.42140625 16.06961914 7.42140625 17.22460938 7.46875 C19.15507395 7.5726315 21.07942081 7.77895614 23 8 C24 10 24 10 23.0625 13.125 C22.5365625 14.548125 22.5365625 14.548125 22 16 C21.01 15.67 20.02 15.34 19 15 C19 14.01 19 13.02 19 12 C18.67 11.34 18.34 10.68 18 10 C12.06 9.67 6.12 9.34 0 9 C0 6.03 0 3.06 0 0 Z " fill="#DAD9CC" transform="translate(30,25)"/>
<path d="M0 0 C0.28875 0.61875 0.5775 1.2375 0.875 1.875 C1.93720042 4.13325765 1.93720042 4.13325765 4 6 C5 8 5 8 4.5 10.875 C4.03580969 13.77618942 4.05922046 15.28219244 5 18 C4.01 18.33 3.02 18.66 2 19 C1.34 16.36 0.68 13.72 0 11 C-2.41121859 12.95633975 -2.41121859 12.95633975 -2.125 16.625 C-2.08375 17.73875 -2.0425 18.8525 -2 20 C-2.66 19.67 -3.32 19.34 -4 19 C-4.68912276 6.0980905 -4.68912276 6.0980905 -2 2.1875 C-1.34 1.465625 -0.68 0.74375 0 0 Z " fill="#C2C1B7" transform="translate(20,41)"/>
<path d="M0 0 C1.98 0 3.96 0 6 0 C5.67 0.99 5.34 1.98 5 3 C5.99 3.99 6.98 4.98 8 6 C6.125 10.75 6.125 10.75 5 13 C4.01 12.67 3.02 12.34 2 12 C2 11.34 2 10.68 2 10 C1.46375 9.87625 0.9275 9.7525 0.375 9.625 C-3.81128161 8.52334694 -7.37933618 7.41377588 -11 5 C-9.02 4.34 -7.04 3.68 -5 3 C-5 3.66 -5 4.32 -5 5 C-4.34 5 -3.68 5 -3 5 C-3 5.66 -3 6.32 -3 7 C-1.35 6.67 0.3 6.34 2 6 C2 4.68 2 3.36 2 2 C1.34 2 0.68 2 0 2 C0 1.34 0 0.68 0 0 Z " fill="#BFBFB2" transform="translate(48,54)"/>
<path d="M0 0 C0.33 2.97 0.66 5.94 1 9 C2.32 8.67 3.64 8.34 5 8 C5.66 9.32 6.32 10.64 7 12 C5.375 13.125 5.375 13.125 3 14 C-0.25 13.125 -0.25 13.125 -3 12 C-3.24954005 10.56589632 -3.47392642 9.12739928 -3.6875 7.6875 C-3.81511719 6.88699219 -3.94273438 6.08648437 -4.07421875 5.26171875 C-4 3 -4 3 -2.58203125 1.20703125 C-1 0 -1 0 0 0 Z " fill="#EBEADF" transform="translate(21,51)"/>
<path d="M0 0 C0.99 0 1.98 0 3 0 C3 0.66 3 1.32 3 2 C3.69867188 1.97679687 4.39734375 1.95359375 5.1171875 1.9296875 C6.02726562 1.91164062 6.93734375 1.89359375 7.875 1.875 C9.23238281 1.84019531 9.23238281 1.84019531 10.6171875 1.8046875 C13 2 13 2 15 4 C14.67 4.99 14.34 5.98 14 7 C9.71 7 5.42 7 1 7 C0.67 6.01 0.34 5.02 0 4 C0.66 3.01 1.32 2.02 2 1 C1.34 0.67 0.68 0.34 0 0 Z " fill="#F3F4E9" transform="translate(53,60)"/>
<path d="M0 0 C0.99 0.66 1.98 1.32 3 2 C3 2.66 3 3.32 3 4 C2.34 4 1.68 4 1 4 C1 4.66 1 5.32 1 6 C-2.47325181 7.1577506 -5.36067448 7.06866652 -9 7 C-8.04443912 1.45774691 -5.70224321 -0.7127804 0 0 Z " fill="#E2E4D7" transform="translate(42,60)"/>
<path d="M0 0 C4.20626034 1.50223584 5.73900021 4.28550034 8 8 C7.67 8.66 7.34 9.32 7 10 C5.35 10 3.7 10 2 10 C2 12.64 2 15.28 2 18 C1.67 18 1.34 18 1 18 C0.03108808 12.62694301 0.03108808 12.62694301 0 10 C1.4375 8 1.4375 8 3 7 C2.34 6.34 1.68 5.68 1 5 C0.375 2.375 0.375 2.375 0 0 Z " fill="#AFAEA8" transform="translate(54,14)"/>
<path d="M0 0 C0.33 0.66 0.66 1.32 1 2 C1.66 2 2.32 2 3 2 C3.625 3.875 3.625 3.875 4 6 C3.34 6.66 2.68 7.32 2 8 C0.68 8 -0.64 8 -2 8 C-2 10.64 -2 13.28 -2 16 C-2.33 16 -2.66 16 -3 16 C-3.14695312 14.98679687 -3.14695312 14.98679687 -3.296875 13.953125 C-4.37079086 7.04032595 -4.37079086 7.04032595 -9 2 C-7.02 2.66 -5.04 3.32 -3 4 C-3 4.99 -3 5.98 -3 7 C-2.67 6.34 -2.34 5.68 -2 5 C-1.34 5 -0.68 5 0 5 C0 3.35 0 1.7 0 0 Z " fill="#B1AEA3" transform="translate(72,41)"/>
<path d="M0 0 C0 1.98 0 3.96 0 6 C-0.639375 6.103125 -1.27875 6.20625 -1.9375 6.3125 C-2.618125 6.539375 -3.29875 6.76625 -4 7 C-4.33 7.99 -4.66 8.98 -5 10 C-4.34 10.33 -3.68 10.66 -3 11 C-3.99 11.33 -4.98 11.66 -6 12 C-7.53166168 7.91556885 -6.63081652 4.20544343 -6 0 C-3 -1 -3 -1 0 0 Z " fill="#F9F7EE" transform="translate(62,24)"/>
<path d="M0 0 C6.93 0.33 13.86 0.66 21 1 C22 3 22 3 21.0625 6.125 C20.5365625 7.548125 20.5365625 7.548125 20 9 C19.01 8.67 18.02 8.34 17 8 C17 7.01 17 6.02 17 5 C16.67 4.34 16.34 3.68 16 3 C13.05358673 2.60620426 13.05358673 2.60620426 9.625 2.5 C3.33135392 2.22090261 3.33135392 2.22090261 0 0 Z " fill="#B3B2AA" transform="translate(32,32)"/>
<path d="M0 0 C0.33 0 0.66 0 1 0 C1.05447047 1.41623216 1.09300508 2.83308191 1.125 4.25 C1.14820313 5.03890625 1.17140625 5.8278125 1.1953125 6.640625 C0.9828378 9.20731941 0.28654105 10.7916067 -1 13 C-1.66 11.35 -2.32 9.7 -3 8 C-3.66 8 -4.32 8 -5 8 C-5 6.68 -5 5.36 -5 4 C-4.0409375 3.8453125 -4.0409375 3.8453125 -3.0625 3.6875 C-2.381875 3.460625 -1.70125 3.23375 -1 3 C-0.67 2.01 -0.34 1.02 0 0 Z " fill="#CAC9BB" transform="translate(62,26)"/>
<path d="M0 0 C0.33 0.66 0.66 1.32 1 2 C1.66 2 2.32 2 3 2 C3 2.66 3 3.32 3 4 C3.66 4.33 4.32 4.66 5 5 C3.75 6.5625 3.75 6.5625 2 8 C-0.1875 7.6875 -0.1875 7.6875 -2 7 C-2 6.34 -2 5.68 -2 5 C-2.66 5 -3.32 5 -4 5 C-3.67 4.01 -3.34 3.02 -3 2 C-2.34 2.33 -1.68 2.66 -1 3 C-0.67 2.01 -0.34 1.02 0 0 Z " fill="#F7F7E6" transform="translate(47,54)"/>
<path d="M0 0 C0.99 0 1.98 0 3 0 C6 5.625 6 5.625 6 9 C5.01 9.33 4.02 9.66 3 10 C0.64551835 7.44931155 0.01672076 6.28982642 -0.1875 2.75 C-0.125625 1.8425 -0.06375 0.935 0 0 Z " fill="#E1E0D5" transform="translate(51,14)"/>
<path d="M0 0 C0.33 0.66 0.66 1.32 1 2 C0.00390625 3.9453125 0.00390625 3.9453125 -1.4375 6.125 C-1.91058594 6.84945312 -2.38367187 7.57390625 -2.87109375 8.3203125 C-3.24363281 8.87460937 -3.61617187 9.42890625 -4 10 C-4.33 9.01 -4.66 8.02 -5 7 C-5.99 7 -6.98 7 -8 7 C-8.33 5.35 -8.66 3.7 -9 2 C-8.34 1.67 -7.68 1.34 -7 1 C-6.34 1.66 -5.68 2.32 -5 3 C-5.33 3.66 -5.66 4.32 -6 5 C-5.34 5 -4.68 5 -4 5 C-3.67 4.34 -3.34 3.68 -3 3 C-2.34 3 -1.68 3 -1 3 C-0.67 2.01 -0.34 1.02 0 0 Z " fill="#AFAFA4" transform="translate(59,43)"/>
<path d="M0 0 C0.66 0 1.32 0 2 0 C2 0.99 2 1.98 2 3 C4.31 3 6.62 3 9 3 C7.4198632 5.15473199 5.89353366 7.10646634 4 9 C0 2.25 0 2.25 0 0 Z " fill="#B2B1A6" transform="translate(33,43)"/>
<path d="M0 0 C0.66 1.65 1.32 3.3 2 5 C-3.75 5.125 -3.75 5.125 -6 4 C-6 3.01 -6 2.02 -6 1 C-4 0 -4 0 0 0 Z " fill="#D0CEC5" transform="translate(41,42)"/>
<path d="M0 0 C1.65 0 3.3 0 5 0 C5 0.99 5 1.98 5 3 C5.33 3.99 5.66 4.98 6 6 C3.36 5.67 0.72 5.34 -2 5 C-1.34 3.35 -0.68 1.7 0 0 Z " fill="#F9F8ED" transform="translate(45,34)"/>
<path d="M0 0 C4.31392226 0.4793247 6.16569547 1.7457985 9 5 C7.824375 4.9690625 7.824375 4.9690625 6.625 4.9375 C4.01885039 4.81315937 4.01885039 4.81315937 2 6 C2 4.68 2 3.36 2 2 C1.34 2 0.68 2 0 2 C0 1.34 0 0.68 0 0 Z " fill="#BBBCAD" transform="translate(63,36)"/>
<path d="M0 0 C0.33 0.99 0.66 1.98 1 3 C0.67 3.66 0.34 4.32 0 5 C-3.96 5 -7.92 5 -12 5 C-11.67 4.34 -11.34 3.68 -11 3 C-9.1128125 3.0928125 -9.1128125 3.0928125 -7.1875 3.1875 C-3.83041021 3.23632922 -3.83041021 3.23632922 -1 1.5 C-0.67 1.005 -0.34 0.51 0 0 Z " fill="#B7B7AD" transform="translate(68,57)"/>
<path d="M0 0 C0 0.66 0 1.32 0 2 C0.66 2 1.32 2 2 2 C2 2.66 2 3.32 2 4 C2.66 4 3.32 4 4 4 C3.67 4.66 3.34 5.32 3 6 C-0.40312738 4.94124926 -3.01353231 3.99097846 -6 2 C-2.25 0 -2.25 0 0 0 Z " fill="#77786C" transform="translate(43,57)"/>
<path d="M0 0 C0.66 0 1.32 0 2 0 C2.33 0.99 2.66 1.98 3 3 C2.01 4.485 2.01 4.485 1 6 C-2.125 6.1875 -2.125 6.1875 -5 6 C-5.33 5.01 -5.66 4.02 -6 3 C-3.69 3 -1.38 3 1 3 C0.67 2.01 0.34 1.02 0 0 Z " fill="#CBCAC0" transform="translate(45,51)"/>
<path d="M0 0 C2.125 0.375 2.125 0.375 4 1 C4 1.66 4 2.32 4 3 C3.34 3 2.68 3 2 3 C1.67 3.99 1.34 4.98 1 6 C0.01 5.67 -0.98 5.34 -2 5 C-2 2 -2 2 0 0 Z " fill="#F7F5E6" transform="translate(54,43)"/>
<path d="M0 0 C2.62187494 1.04874998 3.79371361 1.64931313 5.25 4.125 C5.4975 4.74375 5.745 5.3625 6 6 C4.35 6 2.7 6 1 6 C0.67 4.02 0.34 2.04 0 0 Z " fill="#C2C1B9" transform="translate(54,14)"/>
<path d="M0 0 C0.33 1.32 0.66 2.64 1 4 C-3.75 5.125 -3.75 5.125 -6 4 C-4.63772207 1.27544414 -3.11734545 0 0 0 Z " fill="#F5F3E5" transform="translate(45,50)"/>
<path d="M0 0 C0.99 0.99 1.98 1.98 3 3 C1.25 4.125 1.25 4.125 -1 5 C-3.25 4.125 -3.25 4.125 -5 3 C-2 1 -2 1 0 0 Z " fill="#F3F4E4" transform="translate(25,60)"/>
<path d="M0 0 C0.33 0 0.66 0 1 0 C1 3.63 1 7.26 1 11 C0.34 11 -0.32 11 -1 11 C-2.0257259 6.58937864 -2.03684712 4.07369424 0 0 Z " fill="#95958A" transform="translate(76,47)"/>
<path d="M0 0 C2.97 0.495 2.97 0.495 6 1 C5.01 1.33 4.02 1.66 3 2 C3.33 4.31 3.66 6.62 4 9 C3.34 9 2.68 9 2 9 C2 8.01 2 7.02 2 6 C1.34 5.67 0.68 5.34 0 5 C0.66 5 1.32 5 2 5 C2 3.68 2 2.36 2 1 C1.34 0.67 0.68 0.34 0 0 Z " fill="#BCBCB4" transform="translate(48,12)"/>
<path d="M0 0 C2.29013653 3.4352048 2.17842973 4.985331 2 9 C0.68 9.33 -0.64 9.66 -2 10 C-1.34 6.7 -0.68 3.4 0 0 Z " fill="#F9F9ED" transform="translate(70,50)"/>
<path d="M0 0 C1.32 0.33 2.64 0.66 4 1 C4.33 2.32 4.66 3.64 5 5 C3.35 5 1.7 5 0 5 C0 3.35 0 1.7 0 0 Z " fill="#E7E7DB" transform="translate(71,55)"/>
<path d="M0 0 C0.33 0.99 0.66 1.98 1 3 C1.99 3.33 2.98 3.66 4 4 C3.34 4 2.68 4 2 4 C2 4.99 2 5.98 2 7 C1.34 7 0.68 7 0 7 C-0.66 5.35 -1.32 3.7 -2 2 C-1.34 1.34 -0.68 0.68 0 0 Z " fill="#F2F2E0" transform="translate(34,34)"/>
<path d="M0 0 C0.66 0.33 1.32 0.66 2 1 C1.34 2.65 0.68 4.3 0 6 C-1.65 4.68 -3.3 3.36 -5 2 C-2.625 0.9375 -2.625 0.9375 0 0 Z " fill="#B6B9AA" transform="translate(32,34)"/>
<path d="M0 0 C0.99 1.32 1.98 2.64 3 4 C2.01 4.99 1.02 5.98 0 7 C-2 4 -2 4 -2 1 C-1.34 0.67 -0.68 0.34 0 0 Z " fill="#F5F3E4" transform="translate(55,17)"/>
<path d="M0 0 C0.33 0 0.66 0 1 0 C1 1.98 1 3.96 1 6 C-0.65 6 -2.3 6 -4 6 C-3.67 5.01 -3.34 4.02 -3 3 C-2.34 3 -1.68 3 -1 3 C-0.67 2.01 -0.34 1.02 0 0 Z " fill="#F2F1E3" transform="translate(61,24)"/>
</svg>
